<svg width="210" height="50" viewBox="0 0 210 50" fill="none" xmlns="http://www.w3.org/2000/svg">
<path fill-rule="evenodd" clip-rule="evenodd" d="M62.0479 25.1833C62.0479 39.0274 50.9653 49.9756 37.1335 49.9756C23.3016 49.9756 12.0724 38.9296 12.0724 25.0855C12.0724 11.2414 23.2161 0 37.0479 0C50.8798 0 62.0479 11.3514 62.0479 25.1833Z" fill="#222222"/>
<path fill-rule="evenodd" clip-rule="evenodd" d="M14.8215 26.2097C14.5772 23.8636 12.8176 23.0083 12.5855 19.868C12.2433 21.5176 12.0601 23.2405 12.0601 24.9878C12.0601 28.4335 12.7565 31.7204 14.0273 34.7141C13.6119 30.914 15.1514 29.3011 14.8215 26.2097Z" fill="#22A9E0"/>
<path fill-rule="evenodd" clip-rule="evenodd" d="M24.7434 3.23804C21.7986 4.91204 19.2204 7.16032 17.1676 9.8485C21.8841 5.86511 26.6373 6.37831 27.4804 5.64517C28.5557 4.70431 23.8758 4.32553 23.8758 4.32553C23.8758 4.32553 24.0591 3.84899 24.7434 3.23804Z" fill="#22A9E0"/>
<path fill-rule="evenodd" clip-rule="evenodd" d="M44.6236 47.434C39.6627 44.8925 43.2673 41.2268 44.6603 39.8705C46.0532 38.5142 50.1099 34.1886 46.8352 30.8406C43.5606 27.4927 43.0718 23.8025 44.8313 20.3812C46.5909 16.9599 50.0488 17.7053 51.9916 19.2571C53.9345 20.8211 56.7693 23.5093 58.2111 22.6539C60.4594 21.2854 58.15 18.4384 58.15 18.4384C58.15 18.4384 58.0645 21.3221 57.4291 21.3221C56.7815 21.3221 56.6593 18.2551 56.2316 17.9741C55.0097 17.522 55.7795 20.2346 53.5435 19.0127C51.3074 17.7908 52.1138 14.8827 53.128 13.6241C54.1422 12.3656 55.8406 14.2473 56.3049 14.6505C56.757 15.0537 57.649 15.5181 58.651 15.5181C59.3597 15.5181 60.8993 19.0616 61.7424 21.151C59.8851 9.17643 49.5356 0.012207 37.0479 0.012207C34.9095 0.012207 32.8323 0.281024 30.8406 0.794221C31.6593 0.647593 32.5757 0.525403 33.6021 0.45209C42.0943 -0.232172 44.9535 1.97946 44.6847 3.07917C44.4159 4.17887 44.1104 4.71651 43.0229 4.60654C41.9477 4.49657 40.8357 4.0689 40.1637 4.93645C39.4916 5.81621 38.8318 5.70624 38.1598 5.42521C37.4877 5.14417 37.0234 5.36411 36.608 5.98728C36.1925 6.61045 35.3005 8.3211 34.6407 7.6735C33.9809 7.02589 34.1031 7.31915 34.3108 6.68376C34.5185 6.03616 35.3983 5.36411 34.9951 5.30302C34.5918 5.24192 30.3274 5.16861 27.456 8.19891C30.6085 8.19891 34.6774 8.78542 34.0053 13.6486C33.3333 18.5117 29.3255 20.8944 25 24.5723C20.6744 28.2502 15.6647 36.5347 21.3587 41.8866C20.2712 41.9966 19.2326 41.8744 18.2917 41.4956C22.8739 46.7131 29.5821 50 37.0723 50C40.5303 50 43.8294 49.2913 46.8352 48.0205C46.041 47.9594 45.2957 47.7761 44.6236 47.434ZM37.5244 8.5777C36.8035 9.87291 35.5449 9.7996 35.2028 9.59187C34.8607 9.38415 34.7385 9.42081 35.7282 8.54104C36.7179 7.66128 38.2453 7.28249 37.5244 8.5777Z" fill="#22A9E0"/>
<path fill-rule="evenodd" clip-rule="evenodd" d="M65.7258 25.3055C64.2107 25.0733 62.7322 25.0856 62.0357 25.11C62.0357 25.1344 62.0357 25.1589 62.0357 25.1833C62.0357 26.5885 61.9135 27.9692 61.6936 29.3133C62.3778 29.2522 63.9419 29.1789 65.7136 29.6188C73.6682 31.9037 73.0694 41.5567 64.0885 41.5567C42.9741 41.5567 34.7263 4.72876 15.0538 4.72876C6.68378 4.72876 0 10.545 0 16.8378C0 22.4585 3.62903 28.849 11.718 30.1809L12.6222 30.3275C12.3167 28.9468 12.1334 27.5171 12.0723 26.0631L11.718 26.0142C-0.562073 23.5704 3.33578 8.58995 14.7727 8.58995C32.087 8.58995 40.4081 45.4546 64.3329 45.4546C69.1838 45.4546 75.4277 42.632 75.4277 36.1071C75.4399 30.5352 71.3221 26.3197 65.7258 25.3055Z" fill="#F3EB33"/>
<path d="M95.7968 25.8309V27.8592C95.7968 28.2136 95.699 28.4824 95.4424 28.7267C94.6238 29.4721 93.5485 29.9486 92.2288 29.9486C89.6995 29.9364 87.6467 28.1036 87.6467 25.3543C87.6467 22.5928 89.6995 20.7844 92.2411 20.7844C93.5729 20.7844 94.5382 21.2487 95.2836 21.9941C95.4058 22.1041 95.4669 22.2629 95.4669 22.434C95.4669 22.7761 95.1858 23.0449 94.8437 23.0449C94.6849 23.0449 94.526 22.9838 94.4038 22.8739C93.8662 22.3362 93.1086 21.9697 92.2411 21.9697C90.396 21.9697 89.0153 23.3748 89.0153 25.3665C89.0153 27.346 90.396 28.7756 92.2411 28.7756C93.2186 28.7756 94.0617 28.2991 94.4771 27.8959V26.3074H92.1555C91.8378 26.3074 91.569 26.0386 91.569 25.7087C91.569 25.391 91.8378 25.1344 92.1555 25.1344H95.1003C95.5524 25.1222 95.7968 25.3788 95.7968 25.8309Z" fill="#222222"/>
<path d="M97.4952 29.0689V21.5176C97.4952 21.1633 97.8007 20.8578 98.1673 20.8578C98.5216 20.8578 98.8149 21.1633 98.8149 21.5176V28.6046H102.31C102.627 28.6046 102.908 28.8612 102.908 29.1789C102.908 29.5088 102.627 29.7776 102.31 29.7776H98.2162C97.7518 29.7654 97.4952 29.5088 97.4952 29.0689Z" fill="#222222"/>
<path d="M107.967 20.7722C110.606 20.7722 112.427 22.7273 112.427 25.3421C112.427 27.9692 110.606 29.912 107.967 29.912C105.328 29.912 103.507 27.957 103.507 25.3421C103.507 22.7273 105.328 20.7722 107.967 20.7722ZM107.967 21.9575C106.073 21.9575 104.875 23.3993 104.875 25.3543C104.875 27.2849 106.073 28.7512 107.967 28.7512C109.836 28.7512 111.058 27.2971 111.058 25.3543C111.058 23.3993 109.836 21.9575 107.967 21.9575Z" fill="#222222"/>
<path d="M114.027 29.0689V21.6275C114.027 21.1754 114.284 20.9188 114.748 20.9188H118.182C119.758 20.9188 120.675 21.8841 120.675 23.1671C120.675 24.279 119.941 25.0244 119.135 25.1955C120.076 25.3421 120.846 26.2952 120.846 27.3704C120.846 28.7634 119.917 29.7531 118.292 29.7531H114.748C114.284 29.7653 114.027 29.5088 114.027 29.0689ZM117.925 24.67C118.817 24.67 119.306 24.108 119.306 23.3871C119.306 22.6539 118.817 22.0918 117.925 22.0918H115.347V24.6823H117.925V24.67ZM117.986 28.6045C118.915 28.6045 119.477 28.0791 119.477 27.2116C119.477 26.4785 118.976 25.8431 117.986 25.8431H115.347V28.6045H117.986Z" fill="#222222"/>
<path d="M129.973 29.1545C129.973 29.521 129.668 29.8265 129.301 29.8265C129.008 29.8265 128.764 29.6432 128.678 29.3988L128.116 27.9326H123.729L123.167 29.3988C123.07 29.6432 122.825 29.8265 122.544 29.8265C122.178 29.8265 121.872 29.521 121.872 29.1545C121.872 29.0689 121.897 28.9834 121.921 28.8979L124.841 21.5909C125 21.1633 125.428 20.8456 125.917 20.8456C126.418 20.8456 126.833 21.1633 127.004 21.5909L129.924 28.8979C129.937 28.9712 129.973 29.0689 129.973 29.1545ZM127.676 26.7596L125.917 22.0797L124.169 26.7596H127.676Z" fill="#222222"/>
<path d="M131.317 29.0689V21.5176C131.317 21.1633 131.623 20.8578 131.989 20.8578C132.344 20.8578 132.637 21.1633 132.637 21.5176V28.6046H136.119C136.437 28.6046 136.718 28.8612 136.718 29.1789C136.718 29.5088 136.437 29.7776 136.119 29.7776H132.026C131.574 29.7654 131.317 29.5088 131.317 29.0689Z" fill="#222222"/>
<path d="M149.328 25.8309V27.8592C149.328 28.2136 149.23 28.4824 148.974 28.7267C148.155 29.4721 147.08 29.9486 145.76 29.9486C143.231 29.9486 141.166 28.1158 141.166 25.3543C141.166 22.5928 143.219 20.7844 145.76 20.7844C147.092 20.7844 148.057 21.2487 148.803 21.9941C148.925 22.1041 148.986 22.2629 148.986 22.434C148.986 22.7761 148.705 23.0449 148.363 23.0449C148.204 23.0449 148.045 22.9838 147.923 22.8739C147.385 22.3362 146.628 21.9697 145.76 21.9697C143.915 21.9697 142.534 23.3748 142.534 25.3665C142.534 27.346 143.915 28.7756 145.76 28.7756C146.738 28.7756 147.581 28.2991 147.996 27.8959V26.3074H145.675C145.357 26.3074 145.088 26.0386 145.088 25.7087C145.088 25.391 145.357 25.1344 145.675 25.1344H148.619C149.084 25.1222 149.328 25.3788 149.328 25.8309Z" fill="#222222"/>
<path d="M158.456 29.1545C158.456 29.521 158.15 29.8265 157.784 29.8265C157.49 29.8265 157.246 29.6432 157.16 29.3988L156.598 27.9326H152.212L151.65 29.3988C151.552 29.6432 151.308 29.8265 151.027 29.8265C150.66 29.8265 150.354 29.521 150.354 29.1545C150.354 29.0689 150.379 28.9834 150.403 28.8979L153.324 21.5909C153.483 21.1633 153.91 20.8456 154.399 20.8456C154.9 20.8456 155.315 21.1633 155.486 21.5909L158.407 28.8979C158.431 28.9712 158.456 29.0689 158.456 29.1545ZM156.159 26.7596L154.399 22.0797L152.652 26.7596H156.159Z" fill="#222222"/>
<path d="M167.424 29.1667V22.7395L164.638 29.5821C164.577 29.741 164.443 29.8387 164.284 29.8387C164.113 29.8387 163.979 29.741 163.93 29.5821L161.144 22.7395V29.1667C161.144 29.521 160.851 29.8265 160.496 29.8265C160.13 29.8265 159.824 29.521 159.824 29.1667V21.9575C159.824 21.3588 160.313 20.8578 160.936 20.8578C161.4 20.8578 161.816 21.1388 161.975 21.542L164.296 27.285L166.618 21.542C166.777 21.1266 167.192 20.8578 167.657 20.8578C168.28 20.8578 168.768 21.3588 168.768 21.9575V29.1667C168.768 29.521 168.463 29.8265 168.096 29.8265C167.718 29.8265 167.424 29.5332 167.424 29.1667Z" fill="#222222"/>
<path d="M170.711 29.0689V21.6275C170.711 21.1754 170.968 20.9188 171.432 20.9188H176.124C176.442 20.9188 176.723 21.1876 176.723 21.5176C176.723 21.8352 176.442 22.0918 176.124 22.0918H172.043V24.6823H176.039C176.356 24.6823 176.637 24.9389 176.637 25.2566C176.637 25.5865 176.356 25.8553 176.039 25.8553H172.043V28.6168H176.124C176.442 28.6168 176.723 28.8734 176.723 29.1911C176.723 29.521 176.442 29.7898 176.124 29.7898H171.432C170.968 29.7653 170.711 29.5088 170.711 29.0689Z" fill="#222222"/>
<path d="M181 28.8123C181 28.4702 181.268 28.2014 181.598 28.2014C181.721 28.2014 181.843 28.238 181.928 28.3113C182.246 28.5802 182.613 28.7512 183.114 28.7512C184.14 28.7512 184.775 28.067 184.775 27.0284V21.5298C184.775 21.1755 185.081 20.87 185.435 20.87C185.802 20.87 186.095 21.1755 186.095 21.5298V27.0406C186.095 29.0078 184.849 29.9365 183.199 29.9365C182.454 29.9365 181.818 29.7532 181.244 29.3011C181.097 29.1789 181 29.0078 181 28.8123Z" fill="#222222"/>
<path d="M195.186 29.1545C195.186 29.521 194.88 29.8265 194.514 29.8265C194.221 29.8265 193.976 29.6432 193.891 29.3988L193.329 27.9326H188.942L188.38 29.3988C188.282 29.6432 188.038 29.8265 187.757 29.8265C187.39 29.8265 187.085 29.521 187.085 29.1545C187.085 29.0689 187.109 28.9834 187.134 28.8979L190.054 21.5909C190.213 21.1633 190.64 20.8456 191.129 20.8456C191.63 20.8456 192.046 21.1633 192.217 21.5909L195.137 28.8979C195.149 28.9712 195.186 29.0689 195.186 29.1545ZM192.889 26.7596L191.129 22.0797L189.382 26.7596H192.889Z" fill="#222222"/>
<path d="M204.142 29.1667V22.7395L201.356 29.5821C201.295 29.741 201.161 29.8387 201.002 29.8387C200.831 29.8387 200.697 29.741 200.648 29.5821L197.862 22.7395V29.1667C197.862 29.521 197.569 29.8265 197.214 29.8265C196.848 29.8265 196.542 29.521 196.542 29.1667V21.9575C196.542 21.3588 197.031 20.8578 197.654 20.8578C198.118 20.8578 198.534 21.1388 198.693 21.542L201.014 27.285L203.336 21.542C203.495 21.1266 203.91 20.8578 204.374 20.8578C204.998 20.8578 205.486 21.3588 205.486 21.9575V29.1667C205.486 29.521 205.181 29.8265 204.814 29.8265C204.436 29.8265 204.142 29.5332 204.142 29.1667Z" fill="#222222"/>
<path d="M208.26 20.7722C209.14 20.7722 209.836 21.4687 209.836 22.3485C209.836 23.216 209.14 23.9247 208.26 23.9247C207.393 23.9247 206.684 23.216 206.684 22.3485C206.696 21.4687 207.393 20.7722 208.26 20.7722ZM208.26 20.9922C207.515 20.9922 206.904 21.5909 206.904 22.3362C206.904 23.0816 207.515 23.6925 208.26 23.6925C209.005 23.6925 209.604 23.0816 209.604 22.3362C209.616 21.5909 209.018 20.9922 208.26 20.9922ZM208.285 22.544H207.906V23.1671C207.906 23.2282 207.857 23.2893 207.796 23.2893C207.722 23.2893 207.674 23.2404 207.674 23.1671V21.6031C207.674 21.5176 207.735 21.4565 207.82 21.4565H208.407C208.712 21.4565 208.981 21.6764 208.981 22.0063C208.981 22.3607 208.7 22.5073 208.578 22.5317L208.969 23.106C208.981 23.1305 208.993 23.1549 208.993 23.1671C208.993 23.2404 208.932 23.3015 208.859 23.3015C208.81 23.3015 208.773 23.2771 208.749 23.2404L208.285 22.544ZM208.394 21.6642H207.894V22.3118H208.394C208.553 22.3118 208.724 22.1774 208.724 21.9941C208.724 21.7986 208.553 21.6642 208.394 21.6642Z" fill="#222222"/>
</svg>
