<svg width="318" height="50" viewBox="0 0 318 50" fill="none" xmlns="http://www.w3.org/2000/svg">
<path fill-rule="evenodd" clip-rule="evenodd" d="M62.0479 25.1833C62.0479 39.0274 50.9653 49.9756 37.1335 49.9756C23.3016 49.9756 12.0724 38.9296 12.0724 25.0855C12.0724 11.2414 23.2161 0 37.0479 0C50.8798 0 62.0479 11.3514 62.0479 25.1833Z" fill="#222222"/>
<path fill-rule="evenodd" clip-rule="evenodd" d="M14.8215 26.2097C14.5772 23.8636 12.8176 23.0083 12.5855 19.868C12.2433 21.5176 12.0601 23.2405 12.0601 24.9878C12.0601 28.4335 12.7565 31.7204 14.0273 34.7141C13.6119 30.914 15.1514 29.3011 14.8215 26.2097Z" fill="#22A9E0"/>
<path fill-rule="evenodd" clip-rule="evenodd" d="M24.7434 3.23804C21.7986 4.91204 19.2204 7.16032 17.1676 9.8485C21.8841 5.86511 26.6373 6.37831 27.4804 5.64517C28.5557 4.70431 23.8758 4.32553 23.8758 4.32553C23.8758 4.32553 24.0591 3.84899 24.7434 3.23804Z" fill="#22A9E0"/>
<path fill-rule="evenodd" clip-rule="evenodd" d="M44.6236 47.434C39.6627 44.8925 43.2673 41.2268 44.6603 39.8705C46.0532 38.5142 50.1099 34.1886 46.8352 30.8406C43.5606 27.4927 43.0718 23.8025 44.8313 20.3812C46.5909 16.9599 50.0488 17.7053 51.9917 19.2571C53.9345 20.8211 56.7693 23.5093 58.2111 22.6539C60.4594 21.2854 58.15 18.4384 58.15 18.4384C58.15 18.4384 58.0645 21.3221 57.4291 21.3221C56.7815 21.3221 56.6593 18.2551 56.2316 17.9741C55.0097 17.522 55.7795 20.2346 53.5435 19.0127C51.3074 17.7908 52.1138 14.8827 53.128 13.6241C54.1422 12.3656 55.8406 14.2473 56.3049 14.6505C56.757 15.0537 57.649 15.5181 58.651 15.5181C59.3597 15.5181 60.8993 19.0616 61.7424 21.151C59.8851 9.17643 49.5356 0.012207 37.0479 0.012207C34.9095 0.012207 32.8323 0.281024 30.8406 0.794221C31.6593 0.647593 32.5757 0.525403 33.6021 0.45209C42.0943 -0.232172 44.9535 1.97946 44.6847 3.07917C44.4159 4.17887 44.1104 4.71651 43.0229 4.60654C41.9477 4.49657 40.8357 4.0689 40.1637 4.93645C39.4916 5.81621 38.8318 5.70624 38.1598 5.42521C37.4877 5.14417 37.0234 5.36411 36.608 5.98728C36.1925 6.61045 35.3005 8.3211 34.6407 7.6735C33.9809 7.02589 34.1031 7.31915 34.3108 6.68376C34.5185 6.03616 35.3983 5.36411 34.9951 5.30302C34.5918 5.24192 30.3274 5.16861 27.456 8.19891C30.6085 8.19891 34.6774 8.78542 34.0053 13.6486C33.3333 18.5117 29.3255 20.8944 25 24.5723C20.6744 28.2502 15.6647 36.5347 21.3587 41.8866C20.2712 41.9966 19.2326 41.8744 18.2917 41.4956C22.8739 46.7131 29.5821 50 37.0723 50C40.5303 50 43.8294 49.2913 46.8352 48.0205C46.041 47.9594 45.2957 47.7761 44.6236 47.434ZM37.5244 8.5777C36.8035 9.87291 35.5449 9.7996 35.2028 9.59187C34.8607 9.38415 34.7385 9.42081 35.7282 8.54104C36.7179 7.66128 38.2453 7.28249 37.5244 8.5777Z" fill="#22A9E0"/>
<path fill-rule="evenodd" clip-rule="evenodd" d="M65.7258 25.3055C64.2107 25.0733 62.7322 25.0856 62.0357 25.11C62.0357 25.1344 62.0357 25.1589 62.0357 25.1833C62.0357 26.5885 61.9135 27.9692 61.6936 29.3133C62.3778 29.2522 63.9419 29.1789 65.7136 29.6188C73.6681 31.9037 73.0694 41.5567 64.0885 41.5567C42.9741 41.5567 34.7263 4.72876 15.0538 4.72876C6.68378 4.72876 0 10.545 0 16.8378C0 22.4585 3.62903 28.849 11.718 30.1809L12.6222 30.3275C12.3167 28.9468 12.1334 27.5171 12.0723 26.0631L11.718 26.0142C-0.562073 23.5704 3.33578 8.58995 14.7727 8.58995C32.087 8.58995 40.4081 45.4546 64.3329 45.4546C69.1838 45.4546 75.4277 42.632 75.4277 36.1071C75.4399 30.5352 71.3221 26.3197 65.7258 25.3055Z" fill="#F3EB33"/>
<path d="M93.5778 16.0586V18.087C93.5778 18.4413 93.48 18.7102 93.2234 18.9545C92.4048 19.6999 91.3295 20.1764 90.0098 20.1764C87.4805 20.1642 85.4277 18.3314 85.4277 15.5821C85.4277 12.8206 87.4805 11.0122 90.0221 11.0122C91.3539 11.0122 92.3192 11.4765 93.0646 12.2219C93.1868 12.3319 93.2479 12.4907 93.2479 12.6618C93.2479 13.0039 92.9668 13.2727 92.6247 13.2727C92.4659 13.2727 92.307 13.2116 92.1848 13.1017C91.6472 12.564 90.8896 12.1974 90.0221 12.1974C88.177 12.1974 86.7963 13.6026 86.7963 15.5943C86.7963 17.5738 88.177 19.0034 90.0221 19.0034C90.9996 19.0034 91.8427 18.5269 92.2581 18.1236V16.5352H89.9365C89.6188 16.5352 89.35 16.2664 89.35 15.9364C89.35 15.6188 89.6188 15.3622 89.9365 15.3622H92.8813C93.3334 15.3499 93.5778 15.6065 93.5778 16.0586Z" fill="white"/>
<path d="M95.2762 19.2967V11.7454C95.2762 11.391 95.5817 11.0856 95.9483 11.0856C96.3026 11.0856 96.5959 11.391 96.5959 11.7454V18.8324H100.091C100.408 18.8324 100.689 19.089 100.689 19.4067C100.689 19.7366 100.408 20.0054 100.091 20.0054H95.9972C95.5328 19.9932 95.2762 19.7366 95.2762 19.2967Z" fill="white"/>
<path d="M105.748 11C108.387 11 110.208 12.955 110.208 15.5699C110.208 18.197 108.387 20.1398 105.748 20.1398C103.109 20.1398 101.288 18.1848 101.288 15.5699C101.288 12.955 103.109 11 105.748 11ZM105.748 12.1852C103.854 12.1852 102.656 13.6271 102.656 15.5821C102.656 17.5127 103.854 18.979 105.748 18.979C107.617 18.979 108.839 17.5249 108.839 15.5821C108.839 13.6271 107.617 12.1852 105.748 12.1852Z" fill="white"/>
<path d="M111.808 19.2967V11.8553C111.808 11.4032 112.065 11.1466 112.529 11.1466H115.963C117.539 11.1466 118.456 12.1119 118.456 13.3949C118.456 14.5068 117.722 15.2522 116.916 15.4232C117.857 15.5699 118.627 16.5229 118.627 17.5982C118.627 18.9912 117.698 19.9809 116.073 19.9809H112.529C112.065 19.9931 111.808 19.7365 111.808 19.2967ZM115.706 14.8978C116.598 14.8978 117.087 14.3358 117.087 13.6148C117.087 12.8817 116.598 12.3196 115.706 12.3196H113.128V14.91H115.706V14.8978ZM115.767 18.8323C116.696 18.8323 117.258 18.3069 117.258 17.4394C117.258 16.7062 116.757 16.0708 115.767 16.0708H113.128V18.8323H115.767Z" fill="white"/>
<path d="M127.754 19.3823C127.754 19.7488 127.449 20.0543 127.082 20.0543C126.789 20.0543 126.545 19.871 126.459 19.6266L125.897 18.1604H121.51L120.948 19.6266C120.851 19.871 120.606 20.0543 120.325 20.0543C119.959 20.0543 119.653 19.7488 119.653 19.3823C119.653 19.2967 119.678 19.2112 119.702 19.1257L122.622 11.8187C122.781 11.3911 123.209 11.0734 123.698 11.0734C124.199 11.0734 124.614 11.3911 124.785 11.8187L127.705 19.1257C127.718 19.199 127.754 19.2967 127.754 19.3823ZM125.457 16.9873L123.698 12.3075L121.95 16.9873H125.457Z" fill="white"/>
<path d="M129.098 19.2967V11.7454C129.098 11.391 129.404 11.0856 129.77 11.0856C130.125 11.0856 130.418 11.391 130.418 11.7454V18.8324H133.9C134.218 18.8324 134.499 19.089 134.499 19.4067C134.499 19.7366 134.218 20.0054 133.9 20.0054H129.807C129.355 19.9932 129.098 19.7366 129.098 19.2967Z" fill="white"/>
<path d="M147.109 16.0586V18.087C147.109 18.4413 147.011 18.7102 146.755 18.9545C145.936 19.6999 144.861 20.1764 143.541 20.1764C141.012 20.1764 138.947 18.3436 138.947 15.5821C138.947 12.8206 141 11.0122 143.541 11.0122C144.873 11.0122 145.838 11.4765 146.584 12.2219C146.706 12.3319 146.767 12.4907 146.767 12.6618C146.767 13.0039 146.486 13.2727 146.144 13.2727C145.985 13.2727 145.826 13.2116 145.704 13.1017C145.166 12.564 144.409 12.1974 143.541 12.1974C141.696 12.1974 140.315 13.6026 140.315 15.5943C140.315 17.5738 141.696 19.0034 143.541 19.0034C144.519 19.0034 145.362 18.5269 145.777 18.1236V16.5352H143.456C143.138 16.5352 142.869 16.2664 142.869 15.9364C142.869 15.6188 143.138 15.3622 143.456 15.3622H146.4C146.865 15.3499 147.109 15.6065 147.109 16.0586Z" fill="white"/>
<path d="M156.237 19.3823C156.237 19.7488 155.931 20.0543 155.565 20.0543C155.271 20.0543 155.027 19.871 154.941 19.6266L154.379 18.1604H149.993L149.431 19.6266C149.333 19.871 149.089 20.0543 148.808 20.0543C148.441 20.0543 148.135 19.7488 148.135 19.3823C148.135 19.2967 148.16 19.2112 148.184 19.1257L151.105 11.8187C151.264 11.3911 151.691 11.0734 152.18 11.0734C152.681 11.0734 153.096 11.3911 153.267 11.8187L156.188 19.1257C156.212 19.199 156.237 19.2967 156.237 19.3823ZM153.94 16.9873L152.18 12.3075L150.433 16.9873H153.94Z" fill="white"/>
<path d="M165.205 19.3945V12.9673L162.419 19.8099C162.358 19.9688 162.224 20.0665 162.065 20.0665C161.894 20.0665 161.76 19.9688 161.711 19.8099L158.925 12.9673V19.3945C158.925 19.7488 158.632 20.0543 158.277 20.0543C157.911 20.0543 157.605 19.7488 157.605 19.3945V12.1853C157.605 11.5865 158.094 11.0856 158.717 11.0856C159.181 11.0856 159.597 11.3666 159.756 11.7698L162.077 17.5127L164.399 11.7698C164.558 11.3544 164.973 11.0856 165.438 11.0856C166.061 11.0856 166.55 11.5865 166.55 12.1853V19.3945C166.55 19.7488 166.244 20.0543 165.877 20.0543C165.499 20.0543 165.205 19.761 165.205 19.3945Z" fill="white"/>
<path d="M168.492 19.2967V11.8553C168.492 11.4032 168.749 11.1466 169.213 11.1466H173.905C174.223 11.1466 174.504 11.4154 174.504 11.7453C174.504 12.063 174.223 12.3196 173.905 12.3196H169.824V14.91H173.82C174.137 14.91 174.418 15.1666 174.418 15.4843C174.418 15.8142 174.137 16.0831 173.82 16.0831H169.824V18.8446H173.905C174.223 18.8446 174.504 19.1012 174.504 19.4188C174.504 19.7488 174.223 20.0176 173.905 20.0176H169.213C168.749 19.9931 168.492 19.7365 168.492 19.2967Z" fill="white"/>
<path d="M178.781 19.0401C178.781 18.698 179.049 18.4292 179.379 18.4292C179.502 18.4292 179.624 18.4658 179.709 18.5391C180.027 18.8079 180.394 18.979 180.895 18.979C181.921 18.979 182.556 18.2947 182.556 17.2561V11.7576C182.556 11.4033 182.862 11.0978 183.216 11.0978C183.583 11.0978 183.876 11.4033 183.876 11.7576V17.2684C183.876 19.2356 182.63 20.1642 180.98 20.1642C180.235 20.1642 179.599 19.981 179.025 19.5289C178.878 19.4067 178.781 19.2356 178.781 19.0401Z" fill="white"/>
<path d="M192.967 19.3823C192.967 19.7488 192.661 20.0543 192.295 20.0543C192.002 20.0543 191.757 19.871 191.672 19.6266L191.11 18.1604H186.723L186.161 19.6266C186.063 19.871 185.819 20.0543 185.538 20.0543C185.171 20.0543 184.866 19.7488 184.866 19.3823C184.866 19.2967 184.89 19.2112 184.915 19.1257L187.835 11.8187C187.994 11.3911 188.421 11.0734 188.91 11.0734C189.411 11.0734 189.827 11.3911 189.998 11.8187L192.918 19.1257C192.93 19.199 192.967 19.2967 192.967 19.3823ZM190.67 16.9873L188.91 12.3075L187.163 16.9873H190.67Z" fill="white"/>
<path d="M201.923 19.3945V12.9673L199.137 19.8099C199.076 19.9688 198.942 20.0665 198.783 20.0665C198.612 20.0665 198.478 19.9688 198.429 19.8099L195.643 12.9673V19.3945C195.643 19.7488 195.35 20.0543 194.995 20.0543C194.629 20.0543 194.323 19.7488 194.323 19.3945V12.1853C194.323 11.5865 194.812 11.0856 195.435 11.0856C195.899 11.0856 196.315 11.3666 196.474 11.7698L198.795 17.5127L201.117 11.7698C201.276 11.3544 201.691 11.0856 202.155 11.0856C202.779 11.0856 203.267 11.5865 203.267 12.1853V19.3945C203.267 19.7488 202.962 20.0543 202.595 20.0543C202.217 20.0543 201.923 19.761 201.923 19.3945Z" fill="white"/>
<path d="M206.041 11C206.921 11 207.617 11.6965 207.617 12.5762C207.617 13.4438 206.921 14.1525 206.041 14.1525C205.174 14.1525 204.465 13.4438 204.465 12.5762C204.477 11.6965 205.174 11 206.041 11ZM206.041 11.2199C205.296 11.2199 204.685 11.8187 204.685 12.564C204.685 13.3094 205.296 13.9203 206.041 13.9203C206.786 13.9203 207.385 13.3094 207.385 12.564C207.397 11.8187 206.799 11.2199 206.041 11.2199ZM206.066 12.7717H205.687V13.3949C205.687 13.456 205.638 13.5171 205.577 13.5171C205.503 13.5171 205.455 13.4682 205.455 13.3949V11.8309C205.455 11.7454 205.516 11.6843 205.601 11.6843H206.188C206.493 11.6843 206.762 11.9042 206.762 12.2341C206.762 12.5885 206.481 12.7351 206.359 12.7595L206.75 13.3338C206.762 13.3583 206.774 13.3827 206.774 13.3949C206.774 13.4682 206.713 13.5293 206.64 13.5293C206.591 13.5293 206.554 13.5049 206.53 13.4682L206.066 12.7717ZM206.176 11.892H205.675V12.5396H206.176C206.334 12.5396 206.505 12.4052 206.505 12.2219C206.505 12.0264 206.334 11.892 206.176 11.892Z" fill="white"/>
<path d="M89.429 33.3118C88.869 33.3118 88.365 33.2158 87.917 33.0238C87.469 32.8238 87.117 32.5438 86.861 32.1838C86.605 31.8238 86.477 31.4038 86.477 30.9238H87.941C87.973 31.2838 88.113 31.5798 88.361 31.8118C88.617 32.0438 88.973 32.1598 89.429 32.1598C89.901 32.1598 90.269 32.0478 90.533 31.8238C90.797 31.5918 90.929 31.2958 90.929 30.9358C90.929 30.6558 90.845 30.4278 90.677 30.2518C90.517 30.0758 90.313 29.9398 90.065 29.8438C89.825 29.7478 89.489 29.6438 89.057 29.5318C88.513 29.3878 88.069 29.2438 87.725 29.0998C87.389 28.9478 87.101 28.7158 86.861 28.4038C86.621 28.0918 86.501 27.6758 86.501 27.1558C86.501 26.6758 86.621 26.2558 86.861 25.8958C87.101 25.5358 87.437 25.2598 87.869 25.0678C88.301 24.8758 88.801 24.7798 89.369 24.7798C90.177 24.7798 90.837 24.9838 91.349 25.3918C91.869 25.7918 92.157 26.3438 92.213 27.0478H90.701C90.677 26.7438 90.533 26.4838 90.269 26.2678C90.005 26.0518 89.657 25.9438 89.225 25.9438C88.833 25.9438 88.513 26.0438 88.265 26.2438C88.017 26.4438 87.893 26.7318 87.893 27.1078C87.893 27.3638 87.969 27.5758 88.121 27.7438C88.281 27.9038 88.481 28.0318 88.721 28.1278C88.961 28.2238 89.289 28.3278 89.705 28.4398C90.257 28.5918 90.705 28.7438 91.049 28.8958C91.401 29.0478 91.697 29.2838 91.937 29.6038C92.185 29.9158 92.309 30.3358 92.309 30.8638C92.309 31.2878 92.193 31.6878 91.961 32.0638C91.737 32.4398 91.405 32.7438 90.965 32.9758C90.533 33.1998 90.021 33.3118 89.429 33.3118ZM98.9512 31.5238H95.4592L94.8592 33.2278H93.4312L96.4192 24.8758H98.0032L100.991 33.2278H99.5512L98.9512 31.5238ZM98.5672 30.4078L97.2112 26.5318L95.8432 30.4078H98.5672ZM95.2552 24.1918C95.3192 23.7278 95.4712 23.3798 95.7112 23.1478C95.9512 22.9078 96.2512 22.7878 96.6112 22.7878C96.7632 22.7878 96.8952 22.8118 97.0072 22.8598C97.1192 22.9078 97.2552 22.9798 97.4152 23.0758C97.5352 23.1558 97.6352 23.2158 97.7152 23.2558C97.8032 23.2958 97.8992 23.3158 98.0032 23.3158C98.1392 23.3158 98.2512 23.2758 98.3392 23.1958C98.4352 23.1078 98.4952 22.9798 98.5192 22.8118H99.2872C99.2232 23.2758 99.0712 23.6278 98.8312 23.8678C98.5912 24.0998 98.2912 24.2158 97.9312 24.2158C97.7792 24.2158 97.6432 24.1918 97.5232 24.1438C97.4032 24.0878 97.2712 24.0118 97.1272 23.9158C96.9832 23.8278 96.8712 23.7678 96.7912 23.7358C96.7192 23.6958 96.6352 23.6758 96.5392 23.6758C96.4032 23.6758 96.2872 23.7198 96.1912 23.8078C96.1032 23.8958 96.0472 24.0238 96.0232 24.1918H95.2552ZM106.094 33.3118C105.318 33.3118 104.602 33.1318 103.946 32.7718C103.298 32.4038 102.782 31.8958 102.398 31.2478C102.022 30.5918 101.834 29.8558 101.834 29.0398C101.834 28.2238 102.022 27.4918 102.398 26.8438C102.782 26.1958 103.298 25.6918 103.946 25.3318C104.602 24.9638 105.318 24.7798 106.094 24.7798C106.878 24.7798 107.594 24.9638 108.242 25.3318C108.898 25.6918 109.414 26.1958 109.79 26.8438C110.166 27.4918 110.354 28.2238 110.354 29.0398C110.354 29.8558 110.166 30.5918 109.79 31.2478C109.414 31.8958 108.898 32.4038 108.242 32.7718C107.594 33.1318 106.878 33.3118 106.094 33.3118ZM106.094 32.1238C106.646 32.1238 107.138 31.9998 107.57 31.7518C108.002 31.4958 108.338 31.1358 108.578 30.6718C108.826 30.1998 108.95 29.6558 108.95 29.0398C108.95 28.4238 108.826 27.8838 108.578 27.4198C108.338 26.9558 108.002 26.5998 107.57 26.3518C107.138 26.1038 106.646 25.9798 106.094 25.9798C105.542 25.9798 105.05 26.1038 104.618 26.3518C104.186 26.5998 103.846 26.9558 103.598 27.4198C103.358 27.8838 103.238 28.4238 103.238 29.0398C103.238 29.6558 103.358 30.1998 103.598 30.6718C103.846 31.1358 104.186 31.4958 104.618 31.7518C105.05 31.9998 105.542 32.1238 106.094 32.1238ZM119.366 24.8878V30.8998C119.366 31.6438 119.138 32.2318 118.682 32.6638C118.234 33.0958 117.642 33.3118 116.906 33.3118C116.17 33.3118 115.574 33.0958 115.118 32.6638C114.67 32.2318 114.446 31.6438 114.446 30.8998H115.826C115.834 31.2678 115.926 31.5598 116.102 31.7758C116.286 31.9918 116.554 32.0998 116.906 32.0998C117.258 32.0998 117.526 31.9918 117.71 31.7758C117.894 31.5518 117.986 31.2598 117.986 30.8998V24.8878H119.366ZM125.395 33.3118C124.619 33.3118 123.903 33.1318 123.247 32.7718C122.599 32.4038 122.083 31.8958 121.699 31.2478C121.323 30.5918 121.135 29.8558 121.135 29.0398C121.135 28.2238 121.323 27.4918 121.699 26.8438C122.083 26.1958 122.599 25.6918 123.247 25.3318C123.903 24.9638 124.619 24.7798 125.395 24.7798C126.179 24.7798 126.895 24.9638 127.543 25.3318C128.199 25.6918 128.715 26.1958 129.091 26.8438C129.467 27.4918 129.655 28.2238 129.655 29.0398C129.655 29.8558 129.467 30.5918 129.091 31.2478C128.715 31.8958 128.199 32.4038 127.543 32.7718C126.895 33.1318 126.179 33.3118 125.395 33.3118ZM125.395 32.1238C125.947 32.1238 126.439 31.9998 126.871 31.7518C127.303 31.4958 127.639 31.1358 127.879 30.6718C128.127 30.1998 128.251 29.6558 128.251 29.0398C128.251 28.4238 128.127 27.8838 127.879 27.4198C127.639 26.9558 127.303 26.5998 126.871 26.3518C126.439 26.1038 125.947 25.9798 125.395 25.9798C124.843 25.9798 124.351 26.1038 123.919 26.3518C123.487 26.5998 123.147 26.9558 122.899 27.4198C122.659 27.8838 122.539 28.4238 122.539 29.0398C122.539 29.6558 122.659 30.1998 122.899 30.6718C123.147 31.1358 123.487 31.4958 123.919 31.7518C124.351 31.9998 124.843 32.1238 125.395 32.1238ZM136.029 31.5238H132.537L131.937 33.2278H130.509L133.497 24.8758H135.081L138.069 33.2278H136.629L136.029 31.5238ZM135.645 30.4078L134.289 26.5318L132.921 30.4078H135.645ZM132.333 24.1918C132.397 23.7278 132.549 23.3798 132.789 23.1478C133.029 22.9078 133.329 22.7878 133.689 22.7878C133.841 22.7878 133.973 22.8118 134.085 22.8598C134.197 22.9078 134.333 22.9798 134.493 23.0758C134.613 23.1558 134.713 23.2158 134.793 23.2558C134.881 23.2958 134.977 23.3158 135.081 23.3158C135.217 23.3158 135.329 23.2758 135.417 23.1958C135.513 23.1078 135.573 22.9798 135.597 22.8118H136.365C136.301 23.2758 136.149 23.6278 135.909 23.8678C135.669 24.0998 135.369 24.2158 135.009 24.2158C134.857 24.2158 134.721 24.1918 134.601 24.1438C134.481 24.0878 134.349 24.0118 134.205 23.9158C134.061 23.8278 133.949 23.7678 133.869 23.7358C133.797 23.6958 133.713 23.6758 133.617 23.6758C133.481 23.6758 133.365 23.7198 133.269 23.8078C133.181 23.8958 133.125 24.0238 133.101 24.1918H132.333ZM143.173 33.3118C142.397 33.3118 141.681 33.1318 141.025 32.7718C140.377 32.4038 139.861 31.8958 139.477 31.2478C139.101 30.5918 138.913 29.8558 138.913 29.0398C138.913 28.2238 139.101 27.4918 139.477 26.8438C139.861 26.1958 140.377 25.6918 141.025 25.3318C141.681 24.9638 142.397 24.7798 143.173 24.7798C143.957 24.7798 144.673 24.9638 145.321 25.3318C145.977 25.6918 146.493 26.1958 146.869 26.8438C147.245 27.4918 147.433 28.2238 147.433 29.0398C147.433 29.8558 147.245 30.5918 146.869 31.2478C146.493 31.8958 145.977 32.4038 145.321 32.7718C144.673 33.1318 143.957 33.3118 143.173 33.3118ZM143.173 32.1238C143.725 32.1238 144.217 31.9998 144.649 31.7518C145.081 31.4958 145.417 31.1358 145.657 30.6718C145.905 30.1998 146.029 29.6558 146.029 29.0398C146.029 28.4238 145.905 27.8838 145.657 27.4198C145.417 26.9558 145.081 26.5998 144.649 26.3518C144.217 26.1038 143.725 25.9798 143.173 25.9798C142.621 25.9798 142.129 26.1038 141.697 26.3518C141.265 26.5998 140.925 26.9558 140.677 27.4198C140.437 27.8838 140.317 28.4238 140.317 29.0398C140.317 29.6558 140.437 30.1998 140.677 30.6718C140.925 31.1358 141.265 31.4958 141.697 31.7518C142.129 31.9998 142.621 32.1238 143.173 32.1238ZM154.62 24.8878C155.508 24.8878 156.284 25.0598 156.948 25.4038C157.62 25.7398 158.136 26.2278 158.496 26.8678C158.864 27.4998 159.048 28.2398 159.048 29.0878C159.048 29.9358 158.864 30.6718 158.496 31.2958C158.136 31.9198 157.62 32.3998 156.948 32.7358C156.284 33.0638 155.508 33.2278 154.62 33.2278H151.896V24.8878H154.62ZM154.62 32.1118C155.596 32.1118 156.344 31.8478 156.864 31.3198C157.384 30.7918 157.644 30.0478 157.644 29.0878C157.644 28.1198 157.384 27.3638 156.864 26.8198C156.344 26.2758 155.596 26.0038 154.62 26.0038H153.264V32.1118H154.62ZM165.432 31.5238H161.94L161.34 33.2278H159.912L162.9 24.8758H164.484L167.472 33.2278H166.032L165.432 31.5238ZM165.048 30.4078L163.692 26.5318L162.324 30.4078H165.048ZM176.352 28.9438C176.8 29.0238 177.18 29.2598 177.492 29.6518C177.804 30.0438 177.96 30.4878 177.96 30.9838C177.96 31.4078 177.848 31.7918 177.624 32.1358C177.408 32.4718 177.092 32.7398 176.676 32.9398C176.26 33.1318 175.776 33.2278 175.224 33.2278H171.888V24.8878H175.068C175.636 24.8878 176.124 24.9838 176.532 25.1758C176.94 25.3678 177.248 25.6278 177.456 25.9558C177.664 26.2758 177.768 26.6358 177.768 27.0358C177.768 27.5158 177.64 27.9158 177.384 28.2358C177.128 28.5558 176.784 28.7918 176.352 28.9438ZM173.256 28.3918H174.948C175.396 28.3918 175.744 28.2918 175.992 28.0918C176.248 27.8838 176.376 27.5878 176.376 27.2038C176.376 26.8278 176.248 26.5358 175.992 26.3278C175.744 26.1118 175.396 26.0038 174.948 26.0038H173.256V28.3918ZM175.104 32.1118C175.568 32.1118 175.932 31.9998 176.196 31.7758C176.46 31.5518 176.592 31.2398 176.592 30.8398C176.592 30.4318 176.452 30.1078 176.172 29.8678C175.892 29.6278 175.52 29.5078 175.056 29.5078H173.256V32.1118H175.104ZM183.251 33.3118C182.475 33.3118 181.759 33.1318 181.103 32.7718C180.455 32.4038 179.939 31.8958 179.555 31.2478C179.179 30.5918 178.991 29.8558 178.991 29.0398C178.991 28.2238 179.179 27.4918 179.555 26.8438C179.939 26.1958 180.455 25.6918 181.103 25.3318C181.759 24.9638 182.475 24.7798 183.251 24.7798C184.035 24.7798 184.751 24.9638 185.399 25.3318C186.055 25.6918 186.571 26.1958 186.947 26.8438C187.323 27.4918 187.511 28.2238 187.511 29.0398C187.511 29.8558 187.323 30.5918 186.947 31.2478C186.571 31.8958 186.055 32.4038 185.399 32.7718C184.751 33.1318 184.035 33.3118 183.251 33.3118ZM183.251 32.1238C183.803 32.1238 184.295 31.9998 184.727 31.7518C185.159 31.4958 185.495 31.1358 185.735 30.6718C185.983 30.1998 186.107 29.6558 186.107 29.0398C186.107 28.4238 185.983 27.8838 185.735 27.4198C185.495 26.9558 185.159 26.5998 184.727 26.3518C184.295 26.1038 183.803 25.9798 183.251 25.9798C182.699 25.9798 182.207 26.1038 181.775 26.3518C181.343 26.5998 181.003 26.9558 180.755 27.4198C180.515 27.8838 180.395 28.4238 180.395 29.0398C180.395 29.6558 180.515 30.1998 180.755 30.6718C181.003 31.1358 181.343 31.4958 181.775 31.7518C182.207 31.9998 182.699 32.1238 183.251 32.1238ZM193.885 31.5238H190.393L189.793 33.2278H188.365L191.353 24.8758H192.937L195.925 33.2278H194.485L193.885 31.5238ZM193.501 30.4078L192.145 26.5318L190.777 30.4078H193.501ZM207.529 24.8878L204.397 33.2278H202.813L199.669 24.8878H201.133L203.605 31.8238L206.089 24.8878H207.529ZM210.041 24.8878V33.2278H208.673V24.8878H210.041ZM214.585 33.3118C214.025 33.3118 213.521 33.2158 213.073 33.0238C212.625 32.8238 212.273 32.5438 212.017 32.1838C211.761 31.8238 211.633 31.4038 211.633 30.9238H213.097C213.129 31.2838 213.269 31.5798 213.517 31.8118C213.773 32.0438 214.129 32.1598 214.585 32.1598C215.057 32.1598 215.425 32.0478 215.689 31.8238C215.953 31.5918 216.085 31.2958 216.085 30.9358C216.085 30.6558 216.001 30.4278 215.833 30.2518C215.673 30.0758 215.469 29.9398 215.221 29.8438C214.981 29.7478 214.645 29.6438 214.213 29.5318C213.669 29.3878 213.225 29.2438 212.881 29.0998C212.545 28.9478 212.257 28.7158 212.017 28.4038C211.777 28.0918 211.657 27.6758 211.657 27.1558C211.657 26.6758 211.777 26.2558 212.017 25.8958C212.257 25.5358 212.593 25.2598 213.025 25.0678C213.457 24.8758 213.957 24.7798 214.525 24.7798C215.333 24.7798 215.993 24.9838 216.505 25.3918C217.025 25.7918 217.313 26.3438 217.369 27.0478H215.857C215.833 26.7438 215.689 26.4838 215.425 26.2678C215.161 26.0518 214.813 25.9438 214.381 25.9438C213.989 25.9438 213.669 26.0438 213.421 26.2438C213.173 26.4438 213.049 26.7318 213.049 27.1078C213.049 27.3638 213.125 27.5758 213.277 27.7438C213.437 27.9038 213.637 28.0318 213.877 28.1278C214.117 28.2238 214.445 28.3278 214.861 28.4398C215.413 28.5918 215.861 28.7438 216.205 28.8958C216.557 29.0478 216.853 29.2838 217.093 29.6038C217.341 29.9158 217.465 30.3358 217.465 30.8638C217.465 31.2878 217.349 31.6878 217.117 32.0638C216.893 32.4398 216.561 32.7438 216.121 32.9758C215.689 33.1998 215.177 33.3118 214.585 33.3118ZM224.467 24.8878V26.0038H222.247V33.2278H220.879V26.0038H218.647V24.8878H224.467ZM230.881 31.5238H227.389L226.789 33.2278H225.361L228.349 24.8758H229.933L232.921 33.2278H231.481L230.881 31.5238ZM230.497 30.4078L229.141 26.5318L227.773 30.4078H230.497ZM237.913 31.3678C238.681 30.7038 239.285 30.1598 239.725 29.7358C240.173 29.3038 240.545 28.8558 240.841 28.3918C241.137 27.9278 241.285 27.4638 241.285 26.9998C241.285 26.5198 241.169 26.1438 240.937 25.8718C240.713 25.5998 240.357 25.4638 239.869 25.4638C239.397 25.4638 239.029 25.6158 238.765 25.9198C238.509 26.2158 238.373 26.6158 238.357 27.1198H237.037C237.061 26.2078 237.333 25.5118 237.853 25.0318C238.381 24.5438 239.049 24.2998 239.857 24.2998C240.729 24.2998 241.409 24.5398 241.897 25.0198C242.393 25.4998 242.641 26.1398 242.641 26.9398C242.641 27.5158 242.493 28.0718 242.197 28.6078C241.909 29.1358 241.561 29.6118 241.153 30.0358C240.753 30.4518 240.241 30.9358 239.617 31.4878L239.077 31.9678H242.881V33.1078H237.049V32.1118L237.913 31.3678ZM244.083 28.7398C244.083 27.3558 244.315 26.2758 244.779 25.4998C245.251 24.7158 246.059 24.3238 247.203 24.3238C248.347 24.3238 249.151 24.7158 249.615 25.4998C250.087 26.2758 250.323 27.3558 250.323 28.7398C250.323 30.1398 250.087 31.2358 249.615 32.0278C249.151 32.8118 248.347 33.2038 247.203 33.2038C246.059 33.2038 245.251 32.8118 244.779 32.0278C244.315 31.2358 244.083 30.1398 244.083 28.7398ZM248.979 28.7398C248.979 28.0918 248.935 27.5438 248.847 27.0958C248.767 26.6478 248.599 26.2838 248.343 26.0038C248.087 25.7158 247.707 25.5718 247.203 25.5718C246.699 25.5718 246.319 25.7158 246.063 26.0038C245.807 26.2838 245.635 26.6478 245.547 27.0958C245.467 27.5438 245.427 28.0918 245.427 28.7398C245.427 29.4118 245.467 29.9758 245.547 30.4318C245.627 30.8878 245.795 31.2558 246.051 31.5358C246.315 31.8158 246.699 31.9558 247.203 31.9558C247.707 31.9558 248.087 31.8158 248.343 31.5358C248.607 31.2558 248.779 30.8878 248.859 30.4318C248.939 29.9758 248.979 29.4118 248.979 28.7398ZM252.527 31.3678C253.295 30.7038 253.899 30.1598 254.339 29.7358C254.787 29.3038 255.159 28.8558 255.455 28.3918C255.751 27.9278 255.899 27.4638 255.899 26.9998C255.899 26.5198 255.783 26.1438 255.551 25.8718C255.327 25.5998 254.971 25.4638 254.483 25.4638C254.011 25.4638 253.643 25.6158 253.379 25.9198C253.123 26.2158 252.987 26.6158 252.971 27.1198H251.651C251.675 26.2078 251.947 25.5118 252.467 25.0318C252.995 24.5438 253.663 24.2998 254.471 24.2998C255.343 24.2998 256.023 24.5398 256.511 25.0198C257.007 25.4998 257.255 26.1398 257.255 26.9398C257.255 27.5158 257.107 28.0718 256.811 28.6078C256.523 29.1358 256.175 29.6118 255.767 30.0358C255.367 30.4518 254.855 30.9358 254.231 31.4878L253.691 31.9678H257.495V33.1078H251.663V32.1118L252.527 31.3678ZM259.452 31.3678C260.22 30.7038 260.824 30.1598 261.264 29.7358C261.712 29.3038 262.084 28.8558 262.38 28.3918C262.676 27.9278 262.824 27.4638 262.824 26.9998C262.824 26.5198 262.708 26.1438 262.476 25.8718C262.252 25.5998 261.896 25.4638 261.408 25.4638C260.936 25.4638 260.568 25.6158 260.304 25.9198C260.048 26.2158 259.912 26.6158 259.896 27.1198H258.576C258.6 26.2078 258.872 25.5118 259.392 25.0318C259.92 24.5438 260.588 24.2998 261.396 24.2998C262.268 24.2998 262.948 24.5398 263.436 25.0198C263.932 25.4998 264.18 26.1398 264.18 26.9398C264.18 27.5158 264.032 28.0718 263.736 28.6078C263.448 29.1358 263.1 29.6118 262.692 30.0358C262.292 30.4518 261.78 30.9358 261.156 31.4878L260.616 31.9678H264.42V33.1078H258.588V32.1118L259.452 31.3678ZM270.275 24.8878V30.2038C270.275 30.8358 270.439 31.3118 270.767 31.6318C271.103 31.9518 271.567 32.1118 272.159 32.1118C272.759 32.1118 273.223 31.9518 273.551 31.6318C273.887 31.3118 274.055 30.8358 274.055 30.2038V24.8878H275.423V30.1798C275.423 30.8598 275.275 31.4358 274.979 31.9078C274.683 32.3798 274.287 32.7318 273.791 32.9638C273.295 33.1958 272.747 33.3118 272.147 33.3118C271.547 33.3118 270.999 33.1958 270.503 32.9638C270.015 32.7318 269.627 32.3798 269.339 31.9078C269.051 31.4358 268.907 30.8598 268.907 30.1798V24.8878H270.275ZM284.056 33.2278H282.688L278.572 26.9998V33.2278H277.204V24.8758H278.572L282.688 31.0918V24.8758H284.056V33.2278ZM287.221 24.8878V33.2278H285.853V24.8878H287.221ZM293.925 24.8878V26.0038H290.385V28.4638H293.145V29.5798H290.385V33.2278H289.017V24.8878H293.925ZM296.561 25.9918V28.4398H299.441V29.5558H296.561V32.1118H299.801V33.2278H295.193V24.8758H299.801V25.9918H296.561ZM305.29 33.3118C304.514 33.3118 303.798 33.1318 303.142 32.7718C302.494 32.4038 301.978 31.8958 301.594 31.2478C301.218 30.5918 301.03 29.8558 301.03 29.0398C301.03 28.2238 301.218 27.4918 301.594 26.8438C301.978 26.1958 302.494 25.6918 303.142 25.3318C303.798 24.9638 304.514 24.7798 305.29 24.7798C306.074 24.7798 306.79 24.9638 307.438 25.3318C308.094 25.6918 308.61 26.1958 308.986 26.8438C309.362 27.4918 309.55 28.2238 309.55 29.0398C309.55 29.8558 309.362 30.5918 308.986 31.2478C308.61 31.8958 308.094 32.4038 307.438 32.7718C306.79 33.1318 306.074 33.3118 305.29 33.3118ZM305.29 32.1238C305.842 32.1238 306.334 31.9998 306.766 31.7518C307.198 31.4958 307.534 31.1358 307.774 30.6718C308.022 30.1998 308.146 29.6558 308.146 29.0398C308.146 28.4238 308.022 27.8838 307.774 27.4198C307.534 26.9558 307.198 26.5998 306.766 26.3518C306.334 26.1038 305.842 25.9798 305.29 25.9798C304.738 25.9798 304.246 26.1038 303.814 26.3518C303.382 26.5998 303.042 26.9558 302.794 27.4198C302.554 27.8838 302.434 28.4238 302.434 29.0398C302.434 29.6558 302.554 30.1998 302.794 30.6718C303.042 31.1358 303.382 31.4958 303.814 31.7518C304.246 31.9998 304.738 32.1238 305.29 32.1238ZM315.36 28.9438C315.808 29.0238 316.188 29.2598 316.5 29.6518C316.812 30.0438 316.968 30.4878 316.968 30.9838C316.968 31.4078 316.856 31.7918 316.632 32.1358C316.416 32.4718 316.1 32.7398 315.684 32.9398C315.268 33.1318 314.784 33.2278 314.232 33.2278H310.896V24.8878H314.076C314.644 24.8878 315.132 24.9838 315.54 25.1758C315.948 25.3678 316.256 25.6278 316.464 25.9558C316.672 26.2758 316.776 26.6358 316.776 27.0358C316.776 27.5158 316.648 27.9158 316.392 28.2358C316.136 28.5558 315.792 28.7918 315.36 28.9438ZM312.264 28.3918H313.956C314.404 28.3918 314.752 28.2918 315 28.0918C315.256 27.8838 315.384 27.5878 315.384 27.2038C315.384 26.8278 315.256 26.5358 315 26.3278C314.752 26.1118 314.404 26.0038 313.956 26.0038H312.264V28.3918ZM314.112 32.1118C314.576 32.1118 314.94 31.9998 315.204 31.7758C315.468 31.5518 315.6 31.2398 315.6 30.8398C315.6 30.4318 315.46 30.1078 315.18 29.8678C314.9 29.6278 314.528 29.5078 314.064 29.5078H312.264V32.1118H314.112Z" fill="white"/>
</svg>
