<svg width="30" height="30" viewBox="0 0 30 30" fill="none" xmlns="http://www.w3.org/2000/svg">
<path fill-rule="evenodd" clip-rule="evenodd" d="M15 0C23.2787 0 30 6.72129 30 15C30 23.2787 23.2787 30 15 30C6.72129 30 0 23.2787 0 15C0 6.72129 6.72129 0 15 0ZM23.9833 10.487C23.7677 9.68021 23.1324 9.045 22.3257 8.82938C20.8633 8.4375 15 8.4375 15 8.4375C15 8.4375 9.1367 8.4375 7.67432 8.82938C6.86777 9.045 6.23232 9.68021 6.0167 10.487C5.625 11.9492 5.625 15.0001 5.625 15.0001C5.625 15.0001 5.625 18.0509 6.0167 19.513C6.23232 20.3198 6.86777 20.9552 7.67432 21.1708C9.1367 21.5625 15 21.5625 15 21.5625C15 21.5625 20.8633 21.5625 22.3257 21.1708C23.1324 20.9552 23.7677 20.3198 23.9833 19.513C24.375 18.0509 24.375 15.0001 24.375 15.0001C24.375 15.0001 24.375 11.9492 23.9833 10.487ZM13.1249 17.8127V12.1876L17.9963 15.0001L13.1249 17.8127Z" fill="#222222"/>
</svg>
